<svg xmlns="http://www.w3.org/2000/svg" xml:space="preserve" stroke-miterlimit="10" style="fill-rule:nonzero;clip-rule:evenodd;stroke-linecap:round;stroke-linejoin:round" viewBox="0 0 300 64.64"><g fill-rule="evenodd"><path fill="#0082ff" d="M244.763 49.679h-12.641l17.498-36.441h12.639l-17.496 36.44ZM297.084 17.25c-.711-2.214-2.564-3.463-3.923-4.007a8.285 8.285 0 0 0-1.529-.459c-.707-.12-1.433-.18-2.173-.18-2.987 0-5.689.995-7.645 2.611a9.909 9.909 0 0 0-2.388 2.932l1.065.77c.167-.298.688-.988.903-1.223 1.107-1.184 2.219-1.766 3.523-1.634 2.566.259 1.348 2.963 1.348 2.963v.002l-14.721 30.657h12.865l11.091-24.26c1.395-3.415 2.472-5.424 1.584-8.173Z"/><path fill="#0082ff" d="M257.88 56.475c-1.735-2.085-2.686-4.543-3.176-6.468l-.012-.067c-.703-3.566.141-6.682.753-8.537l.047-.095c.238-.601.413-1.062.557-1.319l1.115-2.585.045.013 9.907-21.256c.798-1.982 2.306-7.946-3.973-11.373-8.929-4.873-19.208 1.035-24.424 7.973-3.624 4.833-4.443 10.3-4.443 11.74 0 4.698 2.985 6.391 3.004 6.423.47.834-.518 1.276-.867 1.056-.075-.049-3.282-1.692-3.507-6.69-.053-1.285-.053-2.83.394-4.581 1.52-6.915 6.122-12.774 12.351-16.532.382-.23.757-.451 1.149-.66l.17-.09c2.547-1.353 5.286-2.266 8.071-2.67 7.275-1.05 14.773 1.105 19.671 6.832 1.735 2.029 2.711 4.035 3.196 5.914.932 3.55.069 6.495-.65 8.267-.262.643-.468 1.231-.627 1.497l-7.455 15.543s-1.461 3.026-2.508 5.376c-.361.855-1.291 3.4-1.159 6.504.369 2.964 1.786 6.724 5.978 8.751 7.518 3.628 19.377.331 24.158-8.672 1.089-2.053 2.597-5.853 2.597-9.25 0-4.821-2.312-7.02-2.335-7.056-.467-.85.515-1.303.874-1.075.066.044 3.307 3.654 2.625 10.433-.779 5.715-3.626 12.558-11.165 16.777-.387.22-.756.461-1.15.678l-.165.086c-2.546 1.39-5.72 2.2-8.516 2.581-.946.125-1.93.193-2.925.193-6.346-.005-13.375-2.595-17.605-7.661"/><path d="M64.532 36.065c0-3.366.16-8.986 5.165-8.986.066 0 .137.004.204.004 4.975.379 4.727 5.983 4.727 9.626 0 3.513.162 9.392-5.152 9.398-3.085-.132-4.944-2.175-4.944-10.042Zm9.991-11.913v2.712c-1.227-2.087-3.261-3.117-5.798-3.199a11.716 11.716 0 0 0-.66-.022c-2.202 0-8.489.756-8.489 12.41 0 7.536 1.45 13.475 8.812 13.475l.337.003c2.258 0 4.604-1.059 5.798-2.893v4.999c0 2.568-1.623 4.308-4.598 4.361-2.307-.065-3.887-1.36-3.94-3.66h-5.281c-.378 4.677 3.706 6.781 8.222 6.781h.339c5.964 0 9.99-1.35 9.99-7.03V24.152h-4.732ZM139.837 46.257c-.921.098-1.596.192-1.929.198-3.772-.089-3.785-2.089-3.785-3.658V27.271h5.909v-3.127h-5.909v-6.743l-4.713 1.963v4.78h-4.464v3.133l4.464-.006v18.03c0 2.912 1.875 4.523 6.065 4.523.036 0 .235.009.311.009 1.456 0 2.906-.302 4.353-.409v-3.203a5.766 5.766 0 0 0-.302.036ZM180.456 35.808c0 5.095-.005 10.788-4.874 10.845-5.312-.146-5.312-5.565-5.312-9.33 0-6.777.64-10.297 5.366-10.297h.2c4.412.365 4.62 5.526 4.62 8.782Zm0-22.57v13.335c-1.348-1.737-3.009-2.716-5.193-2.88a8.973 8.973 0 0 0-.941-.05c-8.76 0-8.971 7.286-8.971 13.615 0 11.036 4.309 12.73 8.617 12.767h.441c2.732 0 4.566-1.068 6.047-3.24v2.743l4.691.003V13.25l-4.691-.013ZM25.769 23.665a19.62 19.62 0 0 0-.918-.022c-2.376 0-4.744.516-6.262 2.956-1.094-1.998-3.633-2.875-5.919-2.934-.206-.012-.41-.022-.616-.022-2.973 0-5.19.837-6.52 3.18v-2.671H.5c.162 1.756.27 3.511.27 5.272v20.104l4.765.003V32.45c0-.96.214-2.467 1.021-3.713.64-.956 2.457-1.705 3.795-1.712 3.25.148 3.964 2.438 3.964 4.909v17.593l4.76.003V32.45c0-.96.217-3.467 1.51-4.469 1.175-.899 1.657-.956 3.299-.956 3.264.144 3.979 2.43 3.979 4.909v17.593l4.758.003V30.238c0-5.598-4.008-6.484-6.852-6.573ZM51.177 35.054H40.932c.057-7.03 2.364-8.285 5.16-8.285.108 0 .218.005.321.005 2.857.144 4.764 1.414 4.764 8.28Zm-4.009-11.387c-.32-.014-.647-.024-.993-.024-9.406 0-10.324 6.131-10.324 13.571 0 11.041 4.444 12.76 10.083 12.808.189.003.39.003.587.003 5.692 0 9.401-2.558 9.455-8.18h-.338v-.009h-4.842c-.16 2.56-1.71 4.816-4.717 4.822-3.238-.093-5.147-1.63-5.147-8.481h15.255v-2.165c0-8.15-1.82-12.12-9.019-12.345ZM87.188 41.99c0-5.237 5.354-5.034 9.511-5.07.418 8.013-2.768 9.67-5.42 9.733-2.845-.076-4.091-2.239-4.091-4.662Zm14.242-10.693c0-4.073-1.664-7.323-7.88-7.614-.4-.024-.817-.04-1.259-.04-5.754 0-8.978 1.967-9.19 7.647h5.103c0-2.615 1.297-4.521 4.25-4.521.063 0 .128.005.197.005 4.202.264 4.151 3.78 4.048 7.024-6.185-.154-14.248.201-14.248 7.881 0 4.878 1.67 8.346 7.42 8.346h.323c3.22 0 5.262-1.125 6.612-3.728v3.23l5.157.004c-.323-1.96-.533-4.02-.533-6.03V31.296ZM110.322 30.187c0-2.205 1.822-3.418 4.185-3.418.081 0 .163.005.241.01 2.44.177 3.744 1.575 3.694 4.058h5.209c.359-4.784-3.379-6.956-7.905-7.16a18.377 18.377 0 0 0-1.019-.034c-7.626 0-9.346 4.273-9.346 6.933 0 7.587 13.544 7.693 13.544 12.216 0 2.565-1.97 3.82-4.535 3.86-4.272-.093-4.342-3.425-4.342-4.857l-5.313-.01c-.159 5.828 3.496 8.24 9.354 8.24h.313c5.377 0 9.459-2.156 9.459-7.728 0-7.74-13.539-7.636-13.539-12.11ZM162.1 24.152h-4.698V40.98c0 4.177-2.902 5.843-5.246 5.876-2.965-.097-4.403-2.123-4.403-5.117V24.152h-4.709v19.337c0 4.33 2.586 6.536 7.312 6.536h.3c2.764 0 5.273-1.18 6.746-3.36v2.863l4.965.003c-.159-1.76-.267-3.523-.267-5.281V24.152ZM205.753 24.152l-6.413 20.377-6.413-20.377h-5.392l9.187 25.376-3.058 9.591h4.845l12.327-34.967h-5.083Z"/></g></svg>